#!OML:ASF E:\Steps\Project 1\Capture day 1\Session 2\Subject.ASF
:FULLY-SPECIFIED
:DEGREES
344
root 9.81584 19.2433 8.38681 10.8947 81.813 -19.278
lowerback -28.9471 -10.9718 -2.68396
upperback -6.10838 -12.965 0.961816
thorax 9.56492 -5.94186 -2.12595
lowerneck 7.8559 -30.4602 18.8833
upperneck -51.887 -42.5833 7.77489
head -26.8782 -18.3382 12.0717
rclavicle -1.11063e-013 7.95139e-015
rhumerus -48.2587 22.2093 -102.003
rradius 109.315
rwrist -23.7071
rhand 4.29969 -43.1024
rfingers 7.12502
rthumb 29.7018 -70.7433
lclavicle -1.11063e-013 7.95139e-015
lhumerus -23.6712 -52.1938 88.8836
lradius 110.899
lwrist 7.79558
lhand -21.8399 -34.6702
lfingers 7.12502
lthumb 4.56334 -4.73934
rfemur -46.4966 8.41428 19.9095
rtibia 19.9715
rfoot 32.5482 3.2027
rtoes -19.1591
lfemur -33.0996 -4.95913 -23.0275
ltibia 28.2546
lfoot 33.058 19.8972
ltoes -50.0614
345
root 9.90818 19.5882 8.33191 19.6954 75.191 -10.5838
lowerback -30.6827 -10.4167 -2.58811
upperback -6.56505 -12.2097 1.29591
thorax 9.92637 -5.55341 -1.7351
lowerneck 9.52473 -30.6965 12.1273
upperneck -51.524 -40.1977 13.7511
head -20.8644 -18.7687 12.2603
rclavicle 1.86361e-015 -9.54166e-015
rhumerus -47.1706 24.0238 -102.988
rradius 108.69
rwrist -23.6799
rhand 5.6571 -43.4858
rfingers 7.12502
rthumb 30.9965 -70.888
lclavicle 1.86361e-015 -9.54166e-015
lhumerus -26.1825 -52.2122 92.2989
lradius 110.84
lwrist 6.33886
lhand -22.6543 -34.3093
lfingers 7.12502
lthumb 3.7769 -4.36307
rfemur -47.287 8.54923 20.5221
rtibia 21.2148
rfoot 30.3072 6.97315
rtoes -20.2529
lfemur -34.0097 -3.94727 -24.3264
ltibia 29.8309
lfoot 32.6915 13.0337
ltoes -52.1044
346
root 9.99091 19.9161 8.28185 22.8488 68.4428 -7.41792
lowerback -32.151 -9.86766 -2.59554
upperback -6.51134 -11.5012 1.83519
thorax 9.93674 -5.21274 -0.974624
lowerneck 8.16916 -30.35 6.8223
upperneck -45.6501 -39.0437 14.9313
head -15.4342 -19.1692 10.2185
rclavicle 1.19122e-013 2.62396e-014
rhumerus -46.0589 25.8087 -103.582
rradius 107.982
rwrist -23.7969
rhand 7.96021 -44.4291
rfingers 7.12502
rthumb 33.1892 -71.3892
lclavicle 1.19122e-013 2.62396e-014
lhumerus -27.9939 -51.8484 95.3068
lradius 110.643
lwrist 4.86022
lhand -22.3224 -34.4026
lfingers 7.12502
lthumb 4.09749 -4.4623
rfemur -47.8844 8.83194 21.1232
rtibia 22.4443
rfoot 29.2824 9.12837
rtoes -22.7738
lfemur -35.105 -2.49391 -25.7488
ltibia 31.7521
lfoot 33.1807 7.12558
ltoes -56.768
347
root 10.0622 20.2265 8.24199 24.3919 61.4935 -5.53239
lowerback -33.0412 -9.24338 -2.41983
upperback -6.63267 -10.7839 2.10268
thorax 10.1592 -4.87573 -0.597628
lowerneck 3.21124 -29.3178 3.41695
upperneck -34.4699 -38.2548 11.2395
head -10.1178 -19.0419 6.39291
rclavicle -1.32689e-014 -3.02153e-014
rhumerus -44.7344 27.0182 -104.738
rradius 106.84
rwrist -23.7501
rhand 10.1182 -45.2667
rfingers 7.12502
rthumb 35.2384 -71.7667
lclavicle -1.32689e-014 -3.02153e-014
lhumerus -28.9895 -51.2651 96.8792
lradius 110.559
lwrist 3.80471
lhand -21.0373 -33.4636
lfingers 7.12502
lthumb 5.33834 -3.55079
rfemur -48.0788 9.21592 21.6771
rtibia 23.7477
rfoot 29.3619 8.67651
rtoes -22.4035
lfemur -35.9062 -0.430599 -27.2497
ltibia 33.4944
lfoot 33.5238 4.88897
ltoes -55.3116
348
root 10.1195 20.5153 8.20962 25.0616 54.5551 -4.0331
lowerback -33.1788 -8.78215 -2.52241
upperback -6.61772 -10.2491 2.41315
thorax 10.2926 -4.65193 -0.0361627
lowerneck -2.78177 -27.1546 -1.35033
upperneck -19.8689 -35.523 8.36239
head -4.5634 -17.7165 3.49292
rclavicle -3.85145e-014 -1.51076e-014
rhumerus -43.3572 28.125 -105.971
rradius 105.509
rwrist -23.691
rhand 11.6219 -46.1051
rfingers 7.12502
rthumb 36.663 -72.2559
lclavicle -3.85145e-014 -1.51076e-014
lhumerus -29.4118 -50.4186 97.5888
lradius 110.491
lwrist 2.72129
lhand -20.4656 -32.6326
lfingers 7.12502
lthumb 5.89035 -2.73449
rfemur -47.8025 9.863 21.9165
rtibia 25.1145
rfoot 29.606 6.86867
rtoes -19.4044
lfemur -36.3484 -0.0529161 -28.2104
ltibia 35.6047
lfoot 32.7451 7.76582
ltoes -49.0287
349
root 10.1728 20.7862 8.15834 25.2844 48.1224 -2.73072
lowerback -32.8078 -8.2744 -1.76568
upperback -6.57996 -9.89409 2.12374
thorax 10.0157 -4.50877 -0.545334
lowerneck -7.39747 -24.73 -11.4595
upperneck -4.3627 -32.4257 15.4366
head 3.97853 -15.7173 3.2476
rclavicle -3.87133e-014 -3.73715e-014
rhumerus -42.3192 29.035 -108.156
rradius 104.024
rwrist -23.9344
rhand 12.6647 -47.0308
rfingers 7.12502
rthumb 37.6491 -72.9246
lclavicle -3.87133e-014 -3.73715e-014
lhumerus -30.1972 -49.3865 97.1237
lradius 110.637
lwrist 1.71636
lhand -20.2237 -32.9503
lfingers 7.12502
lthumb 6.12386 -3.0588
rfemur -47.4157 10.0114 22.1194
rtibia 26.5596
rfoot 29.8875 6.03486
rtoes -18.3128
lfemur -36.6292 0.811271 -29.3327
ltibia 37.3781
lfoot 32.3815 9.22284
ltoes -44.2145
350
root 10.2267 21.0462 8.08815 25.2978 42.0204 -1.40639
lowerback -31.8618 -7.9879 -1.70931
upperback -6.62005 -9.65006 2.26343
thorax 9.61458 -4.43994 -0.247067
lowerneck -9.23614 -24.0702 -13.0201
upperneck -0.226088 -31.8437 16.1056
head 5.83901 -15.1502 3.11229
rclavicle 7.22085e-014 5.24792e-014
rhumerus -41.4636 29.9206 -109.179
rradius 102.581
rwrist -24.5454
rhand 13.2686 -47.4091
rfingers 7.12502
rthumb 38.2195 -73.1482
lclavicle 7.22085e-014 5.24792e-014
lhumerus -30.9014 -48.2128 97.1688
lradius 110.821
lwrist 0.688706
lhand -20.196 -33.3861
lfingers 7.12502
lthumb 6.1506 -3.49541
rfemur -47.048 9.49887 22.3211
rtibia 28.0768
rfoot 29.9534 7.13956
rtoes -21.2363
lfemur -36.7088 1.75217 -30.6061
ltibia 38.7185
lfoot 32.4997 10.4219
ltoes -39.7305
351
root 10.2804 21.2956 8.02859 24.9474 35.8574 -0.103293
lowerback -30.41 -7.84477 -2.42503
upperback -6.95583 -9.39684 2.64355
thorax 9.51908 -4.39257 0.818234
lowerneck -10.9646 -23.6246 -13.8268
upperneck 2.87901 -31.3792 15.8371
head 7.1132 -14.7135 2.82897
rclavicle -4.24359e-014 3.04886e-014
rhumerus -40.7174 30.6575 -109.321
rradius 101.263
rwrist -25.1572
rhand 14.2478 -48.0526
rfingers 7.12502
rthumb 39.1431 -73.5315
lclavicle -4.24359e-014 3.04886e-014
lhumerus -31.5761 -47.3054 97.47
lradius 111.13
lwrist 0.106949
lhand -20.833 -33.1677
lfingers 7.12502
lthumb 5.53556 -3.26004
rfemur -46.3066 9.21314 22.253
rtibia 29.1671
rfoot 29.5044 8.15479
rtoes -23.5222
lfemur -36.3705 2.87739 -31.7822
ltibia 39.817
lfoot 31.3461 13.4409
ltoes -35.7665
352
root 10.3344 21.5368 7.97178 24.3352 29.6862 1.08872
lowerback -29.3092 -7.68281 -2.89119
upperback -6.5915 -9.16605 2.72325
thorax 9.47895 -4.33608 1.33249
lowerneck -12.4231 -23.0338 -13.5351
upperneck 4.90217 -30.7358 15.6589
head 7.8533 -14.2446 2.64069
rclavicle -5.5287e-014 -3.97569e-016
rhumerus -39.8626 31.2562 -109.645
rradius 99.9214
rwrist -25.6425
rhand 14.8408 -49.3162
rfingers 7.12502
rthumb 39.7017 -74.6315
lclavicle -5.5287e-014 -3.97569e-016
lhumerus -32.0651 -46.5457 96.656
lradius 111.702
lwrist 0.383576
lhand -21.5318 -32.6717
lfingers 7.12502
lthumb 4.86088 -2.74745
rfemur -45.3244 9.21306 21.8869
rtibia 29.6754
rfoot 28.8577 8.13648
rtoes -23.4152
lfemur -35.9746 4.07635 -32.7475
ltibia 40.9808
lfoot 30.5847 16.8014
ltoes -35.7519
353
root 10.3849 21.7731 7.88851 23.5385 23.5951 2.34136
lowerback -28.0505 -7.6958 -3.92278
upperback -5.8921 -9.04251 2.99679
thorax 9.85367 -4.35151 2.32344
lowerneck -14.0992 -22.5067 -13.0626
upperneck 6.066 -30.0733 15.6386
head 8.35298 -13.7745 2.51855
rclavicle 5.41688e-015 -2.90226e-014
rhumerus -38.3736 32.188 -108.996
rradius 98.4641
rwrist -25.9812
rhand 14.6761 -49.9087
rfingers 7.12502
rthumb 39.5467 -75.2699
lclavicle 5.41688e-015 -2.90226e-014
lhumerus -31.6231 -45.3399 95.0372
lradius 112.209
lwrist 0.67044
lhand -21.9338 -32.9788
lfingers 7.12502
lthumb 4.47269 -3.04606
rfemur -44.4658 9.19836 21.1688
rtibia 30.1235
rfoot 28.0701 7.81252
rtoes -22.7548
lfemur -35.8065 4.98633 -33.6436
ltibia 42.4905
lfoot 29.4501 19.1372
ltoes -36.3222
354
root 10.4494 21.9993 7.83386 23.0751 18.3934 2.80068
lowerback -26.9998 -7.74391 -3.92796
upperback -5.9385 -9.23483 3.45906
thorax 9.37829 -4.47505 2.86631
lowerneck -15.0927 -21.8754 -12.4604
upperneck 7.45949 -29.3202 15.0285
head 8.69605 -13.3356 2.31332
rclavicle 3.80051e-014 4.45278e-014
rhumerus -38.2567 32.7445 -108.882
rradius 96.9336
rwrist -26.0143
rhand 14.2347 -49.7416
rfingers 7.12502
rthumb 39.1308 -75.224
lclavicle 3.80051e-014 4.45278e-014
lhumerus -33.3544 -43.8348 94.5059
lradius 113.009
lwrist 1.02426
lhand -22.2115 -33.6487
lfingers 7.12502
lthumb 4.2045 -3.71041
rfemur -43.996 9.10629 21.1057
rtibia 29.8886
rfoot 27.1984 5.97686
rtoes -16.2151
lfemur -36.4501 5.23481 -33.4346
ltibia 44.1013
lfoot 28.5623 20.4955
ltoes -37.0677
355
root 10.5079 22.2265 7.77126 22.7437 13.1672 3.25569
lowerback -26.2834 -7.75847 -4.05111
upperback -5.84299 -9.32791 3.85108
thorax 9.22611 -4.55108 3.39341
lowerneck -15.3851 -21.1671 -12.327
upperneck 8.33641 -28.5205 15.192
head 8.96114 -12.8913 2.45699
rclavicle -5.81694e-014 5.88403e-014
rhumerus -37.9976 32.9338 -108.501
rradius 95.3539
rwrist -25.7278
rhand 13.1149 -49.5805
rfingers 7.12502
rthumb 38.0744 -75.3595
lclavicle -5.81694e-014 5.88403e-014
lhumerus -35.0026 -42.7832 93.5789
lradius 114.106
lwrist 2.29786
lhand -22.435 -33.3587
lfingers 7.12502
lthumb 3.98868 -3.41631
rfemur -43.8669 9.19089 20.8519
rtibia 29.6254
rfoot 27.049 6.15603
rtoes -16.8976
lfemur -37.295 5.34325 -32.887
ltibia 45.6796
lfoot 28.2812 21.8199
ltoes -37.5854
356
root 10.5859 22.4347 7.74064 22.7064 8.22427 3.51057
lowerback -26.533 -7.86472 -3.66648
upperback -5.24006 -9.64279 4.14413
thorax 10.066 -4.71559 3.32345
lowerneck -18.6213 -20.2805 -9.59093
upperneck 10.6357 -27.5253 13.1012
head 9.42848 -12.2377 1.45022
rclavicle 2.88486e-014 9.54166e-015
rhumerus -37.0064 33.1657 -107.914
rradius 93.7641
rwrist -24.871
rhand 12.1465 -49.7925
rfingers 7.12502
rthumb 37.1592 -75.8156
lclavicle 2.88486e-014 9.54166e-015
lhumerus -35.547 -41.7227 91.1044
lradius 115.329
lwrist 4.29575
lhand -22.4501 -32.479
lfingers 7.12502
lthumb 3.97417 -2.53632
rfemur -43.8242 8.93604 20.9693
rtibia 28.9915
rfoot 25.8181 7.39599
rtoes -19.9561
lfemur -38.0119 5.14776 -31.9763
ltibia 46.6752
lfoot 28.595 21.586
ltoes -35.1375
